<svg width="279" height="50" viewBox="0 0 279 50" fill="none" xmlns="http://www.w3.org/2000/svg">
<path d="M275.05 1.38721C273.08 1.38721 271.48 2.9872 271.48 4.9572C271.48 6.9272 273.08 8.5072 275.05 8.5072C277.02 8.5072 278.61 6.9072 278.61 4.9572C278.61 3.0072 277.02 1.38721 275.05 1.38721ZM275.05 7.91721C273.41 7.91721 272.09 6.5872 272.09 4.9572C272.09 3.3272 273.41 1.9872 275.05 1.9872C276.69 1.9872 278.01 3.3172 278.01 4.9572C278.01 6.5972 276.68 7.91721 275.05 7.91721Z" fill="#ED1C24"/>
<path d="M276.75 6.61719C276.73 6.54719 276.72 6.42719 276.71 6.25719L276.69 5.71718C276.69 5.47718 276.64 5.29719 276.55 5.19719C276.48 5.09719 276.35 5.00719 276.2 4.94719C276.38 4.85719 276.53 4.71718 276.63 4.56718C276.73 4.40718 276.78 4.20718 276.78 3.96718C276.78 3.48718 276.58 3.16718 276.2 2.99718C275.99 2.90718 275.74 2.86719 275.42 2.86719H273.52V6.96718H274.07V5.20718H275.34C275.57 5.20718 275.73 5.23719 275.84 5.28719C276.02 5.38719 276.13 5.55718 276.14 5.82718L276.18 6.51718C276.18 6.67718 276.2 6.78719 276.2 6.83719C276.2 6.88719 276.22 6.93718 276.25 6.96718H276.93V6.88719C276.84 6.84719 276.78 6.76719 276.75 6.63719V6.61719ZM275.98 4.57718C275.83 4.68718 275.62 4.73718 275.36 4.73718H274.07V3.33719H275.44C275.63 3.33719 275.79 3.35719 275.9 3.41719C276.11 3.52719 276.21 3.71718 276.21 4.01718C276.21 4.27718 276.14 4.47718 275.99 4.57718H275.98Z" fill="#ED1C24"/>
<path d="M100.45 4.46712L100.56 3.95712C100.74 3.62712 102.14 3.34713 102.59 3.14713V1.05713H93.87L93.81 4.47713C93.81 4.47713 96.7 15.9671 96.22 29.9971L84.35 1.05713H75.69V3.14713C76.15 3.35713 77.54 3.62712 77.73 3.95712C77.73 3.95712 72.43 25.5471 77.73 45.6771C77.82 46.0371 76.15 46.2771 75.69 46.4871V48.5771H84.55L84.61 46.1971C81.64 34.9471 81.95 21.6171 82.79 13.9871L82.93 14.5371L95.04 41.3471C94.74 42.9671 94.39 44.5871 93.97 46.1971L94.09 48.5771H102.6V46.4871C102.16 46.2871 100.76 46.0271 100.59 45.7071C105.67 25.7671 100.47 4.47713 100.47 4.47713L100.45 4.46712Z" fill="#ED1C24"/>
<path d="M63.05 4.13713C63.39 3.55713 64.67 3.30713 65.16 3.14713V1.05713H53.65V3.14713C54.14 3.31713 55.42 3.56713 55.75 4.13713C55.93 4.44713 55.93 4.89713 55.93 5.41713V44.2071C55.93 44.7371 55.93 45.1771 55.75 45.4871C55.41 46.0671 54.14 46.3271 53.65 46.4871V48.5771H65.16V46.4871C64.67 46.3271 63.39 46.0671 63.05 45.4871C62.88 45.1871 62.87 44.7871 62.87 44.2871V5.33713C62.87 4.83713 62.87 4.43713 63.05 4.13713Z" fill="#ED1C24"/>
<path d="M39.99 3.13713C40.48 3.30713 41.77 3.55713 42.11 4.13713C42.28 4.44713 42.28 4.89713 42.28 5.41713V39.5471C42.28 41.5371 42.07 42.8571 40.67 43.8571C39.92 44.3971 38.79 44.6771 37.97 44.3871C37.3 44.1471 36.75 43.5371 36.62 42.7471C36.57 42.2471 36.79 41.8171 37.21 41.4871C38.37 40.5971 39.13 39.4471 39.13 37.9471C39.13 35.7171 37.32 33.9071 35.09 33.9071C33.34 33.9071 30.77 35.0671 30.77 39.5871C30.77 44.4971 34.78 48.7671 39.95 48.7671C44.45 48.7671 49.49 45.6571 49.49 37.9871V5.34712C49.49 4.84712 49.49 4.44713 49.67 4.14713C50.01 3.56713 51.29 3.31713 51.79 3.14713V1.05713H39.98V3.14713L39.99 3.13713Z" fill="#ED1C24"/>
<path d="M182.7 45.6674C187.99 25.5474 182.7 3.94737 182.7 3.94737C182.87 3.61737 184.27 3.33737 184.73 3.13737V1.04736H176.06L167.13 21.3374L158.19 1.04736H149.53V3.13737C149.98 3.34737 151.38 3.61737 151.55 3.94737C151.55 3.94737 146.26 25.5374 151.55 45.6674C151.64 46.0274 149.98 46.2674 149.53 46.4774V48.5674H158.38L158.44 46.1874C155.44 34.8074 155.8 21.2874 156.66 13.7074L163.77 28.3274C163.83 35.2774 163.87 45.4874 163.77 45.6774C163.58 46.0274 163.27 46.2874 162.83 46.4774V48.5674H171.52V46.4774C171.07 46.2774 170.76 45.9974 170.57 45.6674C170.48 45.4874 170.49 35.0274 170.52 28.2974L177.62 13.7074C178.48 21.2874 178.83 34.8074 175.83 46.1874L175.88 48.5674H184.74V46.4774C184.28 46.2774 182.61 46.0374 182.71 45.6674H182.7Z" fill="#ED1C24"/>
<path d="M244.17 1.05713H218.67L218.08 9.40712H219.89C220.02 8.64712 220.18 8.12713 220.38 7.83713C220.59 7.54713 220.88 7.40712 221.25 7.40712H227.95V44.2071C227.95 44.7371 227.95 45.1771 227.76 45.4871C227.43 46.0671 226.14 46.3271 225.65 46.4771V48.5671H237.17V46.4771C236.68 46.3171 235.39 46.0671 235.05 45.4871C234.88 45.1771 234.88 44.7871 234.88 44.2871V7.40712H241.55C241.94 7.40712 242.24 7.54713 242.44 7.83713C242.64 8.12713 242.81 8.64712 242.94 9.40712H244.76L244.18 1.05713H244.17Z" fill="#ED1C24"/>
<path d="M72.42 25.3872H65.83V30.9672H72.42V25.3872Z" fill="#ED1C24"/>
<path d="M146.32 25.3872H139.75V30.9672H146.32V25.3872Z" fill="#ED1C24"/>
<path d="M132.64 7.51729C129.85 3.18729 126.07 0.467285 121.3 0.467285C114.95 0.607285 110.44 4.86729 107.75 12.1773C106.35 15.9973 105.64 20.2173 105.64 24.8173C105.64 27.9673 105.99 30.9573 106.67 33.8173C107.44 37.0473 108.57 39.8273 110.07 42.1373C112.86 46.4773 116.62 49.1873 121.34 49.1873C127.64 49.1873 132.19 44.9073 134.95 37.4573C136.36 33.6373 137.07 29.5173 137.07 25.1173C137.07 17.9173 135.59 12.0673 132.64 7.51729ZM129.65 31.9973C129.14 34.5173 128.41 36.6373 127.45 38.3773C125.85 41.2873 123.83 42.7573 121.38 42.7573C118.93 42.7573 116.9 41.2973 115.29 38.3773C113.38 34.9273 112.42 30.4273 112.42 24.8373C112.42 19.2473 113.38 14.7473 115.29 11.2973C116.9 8.37729 118.92 6.9173 121.34 6.9173C123.79 6.9773 125.82 8.42729 127.45 11.2973C129.36 14.6373 130.32 19.2273 130.32 25.0573C130.32 27.4473 130.1 29.7573 129.65 31.9873V31.9973Z" fill="#ED1C24"/>
<path d="M215.12 7.51729C212.33 3.18729 208.55 0.467285 203.78 0.467285C197.43 0.607285 192.91 4.86729 190.23 12.1773C188.82 15.9973 188.12 20.2173 188.12 24.8173C188.12 27.9673 188.46 30.9573 189.14 33.8173C189.91 37.0473 191.04 39.8273 192.54 42.1373C195.33 46.4773 199.08 49.1873 203.81 49.1873C210.11 49.1873 214.65 44.9073 217.41 37.4573C218.82 33.6373 219.54 29.5173 219.54 25.1173C219.54 17.9173 218.06 12.0673 215.11 7.51729H215.12ZM212.13 31.9973C211.62 34.5173 210.89 36.6373 209.93 38.3773C208.33 41.2873 206.31 42.7573 203.86 42.7573C201.41 42.7573 199.38 41.2973 197.77 38.3773C195.86 34.9273 194.9 30.4273 194.9 24.8373C194.9 19.2473 195.86 14.7473 197.77 11.2973C199.38 8.37729 201.4 6.9173 203.82 6.9173C206.27 6.9773 208.31 8.42729 209.94 11.2973C211.85 14.6373 212.81 19.2273 212.81 25.0573C212.81 27.4473 212.59 29.7573 212.14 31.9873L212.13 31.9973Z" fill="#ED1C24"/>
<path d="M270.27 7.51729C267.48 3.18729 263.69 0.467285 258.93 0.467285C252.58 0.607285 248.06 4.86729 245.37 12.1773C243.98 15.9973 243.27 20.2173 243.27 24.8173C243.27 27.9673 243.61 30.9573 244.29 33.8173C245.07 37.0473 246.21 39.8273 247.7 42.1373C250.49 46.4773 254.25 49.1873 258.97 49.1873C265.28 49.1873 269.81 44.9073 272.57 37.4573C273.99 33.6373 274.69 29.5173 274.69 25.1173C274.69 17.9173 273.22 12.0673 270.27 7.51729ZM267.27 31.9973C266.76 34.5173 266.03 36.6373 265.08 38.3773C263.47 41.2873 261.45 42.7573 259 42.7573C256.55 42.7573 254.53 41.2973 252.93 38.3773C251.01 34.9273 250.04 30.4273 250.04 24.8373C250.04 19.2473 251 14.7473 252.93 11.2973C254.53 8.37729 256.55 6.9173 258.97 6.9173C261.42 6.9773 263.45 8.42729 265.09 11.2973C267 14.6373 267.96 19.2273 267.96 25.0573C267.96 27.4473 267.73 29.7573 267.28 31.9873L267.27 31.9973Z" fill="#ED1C24"/>
<path d="M28.81 45.6074C28.69 45.4474 28.56 45.1874 28.52 44.7874C28.02 29.2074 23.3 11.5474 20.64 6.14737C20.64 6.14737 20.24 5.41737 20.24 4.97737C20.24 4.10737 21.93 3.41737 22.71 3.13737V1.04736H9.63998V3.13737C10.42 3.40737 12.11 4.09737 12.11 4.97737C12.11 5.41737 11.71 6.14737 11.71 6.14737C9.05999 11.5474 3.8 29.2074 3.28 44.7874C3.25 45.1874 3.11997 45.4474 2.99997 45.6074C2.70997 45.9974 1.32996 46.3174 0.869965 46.4774V48.5674H11.78V46.4774C11.13 46.2674 10.58 46.0674 10.33 45.6574C10.15 45.3274 10.13 44.8974 10.13 44.5074C10.16 42.8074 10.25 40.9374 10.41 38.9774L20.74 32.8274C21.26 36.0174 21.66 43.6974 21.67 44.5074C21.67 44.9074 21.66 45.3274 21.46 45.6574C21.22 46.0674 20.67 46.2674 20.01 46.4774V48.5674H30.93V46.4774C30.48 46.3174 29.09 45.9974 28.8 45.6074H28.81ZM11.12 32.5074C12.2 24.1274 14.03 15.5174 15.55 12.1674C15.67 11.8974 15.91 11.3574 15.91 11.3574C15.91 11.3574 16.15 11.8974 16.27 12.1674C17.45 14.7674 18.81 20.5074 19.87 26.8574L11.12 32.5074Z" fill="#ED1C24"/>
</svg>
