<svg width="34" height="48" viewBox="0 0 34 48" fill="none" xmlns="http://www.w3.org/2000/svg">
<path d="M17.1 10.8C18.6913 10.8 20.2174 11.4321 21.3427 12.5574C22.4679 13.6826 23.1 15.2087 23.1 16.8C23.1 17.5879 22.9448 18.3681 22.6433 19.0961C22.3418 19.8241 21.8998 20.4855 21.3427 21.0426C20.7855 21.5998 20.1241 22.0417 19.3961 22.3433C18.6682 22.6448 17.8879 22.8 17.1 22.8C15.5087 22.8 13.9826 22.1679 12.8574 21.0426C11.7322 19.9174 11.1 18.3913 11.1 16.8C11.1 15.2087 11.7322 13.6826 12.8574 12.5574C13.9826 11.4321 15.5087 10.8 17.1 10.8ZM17.1 0C21.5557 0 25.8288 1.76999 28.9794 4.92061C32.13 8.07122 33.9 12.3444 33.9 16.8C33.9 29.4 17.1 48 17.1 48C17.1 48 0.300018 29.4 0.300018 16.8C0.300018 12.3444 2.07001 8.07122 5.22062 4.92061C8.37123 1.76999 12.6444 0 17.1 0ZM17.1 4.8C13.9174 4.8 10.8652 6.06428 8.61474 8.31472C6.3643 10.5652 5.10002 13.6174 5.10002 16.8C5.10002 19.2 5.10002 24 17.1 40.104C29.1 24 29.1 19.2 29.1 16.8C29.1 13.6174 27.8357 10.5652 25.5853 8.31472C23.3349 6.06428 20.2826 4.8 17.1 4.8Z" fill="black"/>
</svg>
