<svg width="44" height="48" viewBox="0 0 44 48" fill="none" xmlns="http://www.w3.org/2000/svg">
<path d="M9.70001 24C9.70001 22.6745 10.7745 21.6 12.1 21.6C13.4255 21.6 14.5 22.6745 14.5 24C14.5 25.3255 13.4255 26.4 12.1 26.4C10.7745 26.4 9.70001 25.3255 9.70001 24ZM9.70001 33.6C9.70001 32.2745 10.7745 31.2 12.1 31.2C13.4255 31.2 14.5 32.2745 14.5 33.6C14.5 34.9255 13.4255 36 12.1 36C10.7745 36 9.70001 34.9255 9.70001 33.6ZM19.3 24C19.3 22.6745 20.3745 21.6 21.7 21.6C23.0255 21.6 24.1 22.6745 24.1 24C24.1 25.3255 23.0255 26.4 21.7 26.4C20.3745 26.4 19.3 25.3255 19.3 24ZM19.3 33.6C19.3 32.2745 20.3745 31.2 21.7 31.2C23.0255 31.2 24.1 32.2745 24.1 33.6C24.1 34.9255 23.0255 36 21.7 36C20.3745 36 19.3 34.9255 19.3 33.6ZM28.9 24C28.9 22.6745 29.9745 21.6 31.3 21.6C32.6255 21.6 33.7 22.6745 33.7 24C33.7 25.3255 32.6255 26.4 31.3 26.4C29.9745 26.4 28.9 25.3255 28.9 24ZM28.9 33.6C28.9 32.2745 29.9745 31.2 31.3 31.2C32.6255 31.2 33.7 32.2745 33.7 33.6C33.7 34.9255 32.6255 36 31.3 36C29.9745 36 28.9 34.9255 28.9 33.6Z" fill="black"/>
<path d="M4.90001 48H38.5C41.1472 48 43.3 45.8472 43.3 43.2V9.6C43.3 6.9528 41.1472 4.8 38.5 4.8H33.7V0H28.9V4.8H14.5V0H9.70001V4.8H4.90001C2.25281 4.8 0.100006 6.9528 0.100006 9.6V43.2C0.100006 45.8472 2.25281 48 4.90001 48ZM38.5 14.4L38.5024 43.2H4.90001V14.4H38.5Z" fill="black"/>
</svg>
