<svg width="51" height="48" viewBox="0 0 51 48" fill="none" xmlns="http://www.w3.org/2000/svg">
<path d="M45.8061 12.9258H39.8204C40.6769 11.6799 41.1531 10.2121 41.1911 8.70074C41.2253 7.54936 41.0237 6.40316 40.5987 5.33254C40.1737 4.26192 39.5343 3.28949 38.7198 2.47498C37.9053 1.66048 36.9329 1.0211 35.8623 0.596126C34.7917 0.171152 33.6455 -0.0304459 32.4941 0.00371765C31.4306 0.0264133 30.3833 0.268735 29.418 0.715468C28.4527 1.1622 27.5901 1.8037 26.8845 2.59967C26.3641 3.19334 25.9005 3.83456 25.5 4.51491C25.0995 3.83456 24.6359 3.19334 24.1155 2.59967C23.4099 1.8037 22.5473 1.1622 21.582 0.715468C20.6167 0.268735 19.5694 0.0264133 18.5059 0.00371765C17.3546 -0.0304459 16.2084 0.171152 15.1377 0.596126C14.0671 1.0211 13.0947 1.66048 12.2802 2.47498C11.4657 3.28949 10.8263 4.26192 10.4013 5.33254C9.97635 6.40316 9.77475 7.54936 9.80891 8.70074C9.84689 10.2121 10.3231 11.6799 11.1796 12.9258H5.19388C3.9699 12.9258 2.79605 13.412 1.93057 14.2775C1.06508 15.143 0.578858 16.3168 0.578858 17.5408V24.9249C0.57864 25.9888 0.946014 27.0201 1.6188 27.8442C2.29159 28.6684 3.22847 29.2348 4.27088 29.4476V43.385C4.27088 44.609 4.7571 45.7828 5.62259 46.6483C6.48807 47.5138 7.66192 48 8.88591 48H42.1141C43.3381 48 44.5119 47.5138 45.3774 46.6483C46.2429 45.7828 46.7291 44.609 46.7291 43.385V29.4476C47.7715 29.2348 48.7084 28.6684 49.3812 27.8442C50.054 27.0201 50.4214 25.9888 50.4212 24.9249V17.5408C50.4212 16.3168 49.9349 15.143 49.0694 14.2775C48.204 13.412 47.0301 12.9258 45.8061 12.9258ZM44.8831 24.0019H28.269V18.4638H44.8831V24.0019ZM31.038 6.27323C31.2423 6.04653 31.4912 5.86451 31.7692 5.73863C32.0472 5.61275 32.3482 5.54572 32.6533 5.54175H32.7341C33.1246 5.54064 33.5113 5.61809 33.8712 5.76947C34.2312 5.92086 34.557 6.14309 34.8294 6.42295C35.1017 6.70282 35.3149 7.03459 35.4565 7.39855C35.598 7.7625 35.6648 8.1512 35.6531 8.54152C35.6491 8.84664 35.5821 9.14764 35.4562 9.42562C35.3303 9.70359 35.1483 9.95252 34.9216 10.1568C33.3294 11.569 30.7104 12.2935 28.5459 12.6397C28.892 10.4844 29.6166 7.86542 31.038 6.27323ZM16.2007 6.39553C16.7485 5.85367 17.4863 5.54729 18.2567 5.54175H18.3467C18.6518 5.54572 18.9528 5.61275 19.2308 5.73863C19.5088 5.86451 19.7577 6.04653 19.962 6.27323C21.3742 7.86542 22.0987 10.4821 22.4425 12.6443C20.2966 12.2958 17.6545 11.5713 16.0784 10.1568C15.8517 9.95252 15.6697 9.70359 15.5438 9.42562C15.4179 9.14764 15.3509 8.84664 15.3469 8.54152C15.3367 8.14467 15.4071 7.74988 15.5539 7.38102C15.7006 7.01216 15.9207 6.6769 16.2007 6.39553ZM6.11689 18.4638H22.731V24.0019H6.11689V18.4638ZM9.80891 29.5399H22.731V42.462H9.80891V29.5399ZM28.269 42.462V29.5399H41.1911V42.462H28.269Z" fill="white"/>
</svg>
