<svg width="99" height="72" viewBox="0 0 99 72" fill="none" xmlns="http://www.w3.org/2000/svg">
<path d="M23.4037 69.6013H33.9595V67.6582L35.7208 69.6013H41.1581V68.6828C42.2158 69.2873 43.7481 69.606 45.1623 69.606H69.6148C71.9026 69.606 73.7087 69.0488 75.0734 67.8069V69.6013H83.129V67.8211C84.2386 68.8434 86.0353 69.776 88.571 69.776C90.0348 69.776 91.3688 69.4525 92.4383 68.9071C92.8798 69.2518 93.6919 69.6556 94.6812 69.6556C96.9595 69.6556 98.4257 67.7385 98.4257 65.9182C98.4257 64.7731 97.8307 63.2998 96.4307 62.6034C96.577 59.4043 95.5028 57.3549 94.2822 56.1131C92.9199 54.739 91.0005 54.0425 88.5734 54.0425H69.6172C68.0896 54.0425 66.1655 54.2692 64.501 55.5819L64.3121 54.0425H58.7237L57.4039 56.701L56.1526 54.0425H50.6752L50.4509 55.733C48.9611 54.4226 46.7819 53.9079 45.1623 53.9079C43.7906 53.9079 42.5322 54.1417 41.1581 54.8476V54.0449H33.8203V55.6125L32.4131 54.0449H13.5703L10.2035 57.9971C7.55924 57.5344 5.37063 58.2804 3.67073 59.3263C1.3381 60.7642 -0.607334 63.9161 0.176506 66.7091C0.396076 67.4882 1.40657 70.0262 5.23841 70.0428C8.26517 70.0428 10.2862 68.7749 11.9766 67.2899L13.0839 69.6036H15.8604L17.2534 72L19.2885 71.7332C21.1301 71.4664 22.5419 70.6519 23.4037 69.6036V69.6013Z" fill="white"/>
<path d="M19.6781 64.4567C19.6781 66.4895 19.4939 67.5071 18.4504 67.788L18.0561 67.8943L18.7148 69.0299L18.9226 69.0016C21.0569 68.7135 22.1854 67.3418 22.1854 65.0352V56.8379H19.6757V64.4567H19.6781Z" fill="#E0040B"/>
<path d="M26.9947 56.8379H24.5015V66.8484H26.9947V56.8379Z" fill="#E0040B"/>
<path d="M45.1646 56.6655C42.0033 56.6655 40.0366 58.6488 40.0366 61.8431C40.0366 65.0375 42.001 67.0255 45.1646 67.0255C48.3283 67.0255 50.2903 65.0422 50.2903 61.8431C50.2903 58.644 48.326 56.6655 45.1646 56.6655ZM47.6626 61.8431C47.6626 64.1002 46.6591 65.616 45.1646 65.616C43.6702 65.616 42.6644 64.1002 42.6644 61.8431C42.6644 59.5861 43.6702 58.068 45.1646 58.068C46.6591 58.068 47.6626 59.5861 47.6626 61.8431Z" fill="#E0040B"/>
<path d="M69.6172 56.6655C66.4535 56.6655 64.4892 58.6488 64.4892 61.8431C64.4892 65.0375 66.4535 67.0255 69.6172 67.0255C72.7809 67.0255 74.7428 65.0422 74.7428 61.8431C74.7428 58.644 72.7785 56.6655 69.6172 56.6655ZM72.1127 61.8431C72.1127 64.1002 71.1093 65.616 69.6172 65.616C68.1251 65.616 67.1146 64.1002 67.1146 61.8431C67.1146 59.5861 68.1203 58.068 69.6172 58.068C71.114 58.068 72.1127 59.5861 72.1127 61.8431Z" fill="#E0040B"/>
<path d="M88.5734 56.6655C85.412 56.6655 83.4477 58.6488 83.4477 61.8431C83.4477 65.0375 85.412 67.0255 88.5734 67.0255C91.7347 67.0255 93.7038 65.0422 93.7038 61.8431C93.7038 58.644 91.7371 56.6655 88.5734 56.6655ZM91.0736 61.8431C91.0736 64.1002 90.0702 65.616 88.5734 65.616C87.0765 65.616 86.0778 64.1002 86.0778 61.8431C86.0778 59.5861 87.0812 58.068 88.5734 58.068C90.0655 58.068 91.0736 59.5861 91.0736 61.8431Z" fill="#E0040B"/>
<path d="M14.8381 56.8331C14.8381 56.8331 12.5432 59.5057 11.1692 61.1159C9.5708 60.521 7.51676 60.2022 5.11802 61.6778C2.85149 63.0731 1.14687 67.2757 5.25259 67.2922C7.28774 67.3016 9.26859 66.506 11.7712 63.5406C11.842 63.4556 11.9719 63.3045 12.0427 63.2243C13.1618 64.0412 14.059 65.1862 14.8381 66.8507H17.3218V56.8355H14.8381V56.8331ZM10.2224 62.2256C8.74918 64.001 7.5687 65.1862 6.63848 65.7458C4.50653 67.0254 3.92101 64.4472 6.57237 62.7285C7.60175 62.0627 9.16235 61.7723 10.2248 62.2256H10.2224ZM13.0131 62.0745C13.7119 61.2458 14.491 60.3155 14.8381 59.9V63.6469C14.3329 63.0873 13.7119 62.5443 13.0131 62.0745Z" fill="#E0040B"/>
<path d="M80.3761 66.8484V58.5C80.6287 58.5 82.0996 58.5685 83.1266 58.7314V56.8402H75.0805V58.7314C76.1075 58.5685 77.5784 58.5 77.831 58.5V66.8484H80.3761Z" fill="#E0040B"/>
<path d="M60.1048 61.0522L57.3165 66.8484H56.5893L53.8294 60.9719C53.8388 61.031 53.8435 61.1018 53.8388 61.1703C53.6098 63.0095 53.3595 65.8828 53.3359 66.8484H51.3078C51.7045 64.825 52.5639 58.8471 52.7953 56.8379H54.4196L57.3425 62.9646L60.4259 56.8379H61.8873C62.14 58.8447 62.5578 62.202 63.3724 66.8484H60.5392C60.5062 65.8521 60.2842 63.0071 60.1001 61.2505C60.0954 61.1797 60.1001 61.1112 60.1072 61.0522H60.1048Z" fill="#E0040B"/>
<path d="M36.3323 62.4051C36.4244 62.5113 36.5306 62.6718 36.6109 62.8088L36.5778 62.1383V56.8379H38.4052V66.8484H36.9438L31.4829 60.809C31.3743 60.7004 31.2538 60.5139 31.1736 60.377L31.2066 61.031V66.8484H29.3769V56.8379H31.2066L36.3299 62.4051H36.3323Z" fill="#E0040B"/>
<path d="M95.6704 65.9182C95.6704 65.3728 95.2242 64.9289 94.6812 64.9289C94.1381 64.9289 93.6919 65.3728 93.6919 65.9182H93.8147C93.8147 65.4412 94.2042 65.0517 94.6812 65.0517C95.1581 65.0517 95.5476 65.4412 95.5476 65.9182H95.6728H95.6704Z" fill="#E0040B"/>
<path d="M95.5476 65.9182C95.5476 66.3927 95.1605 66.7822 94.6812 66.7822C94.2019 66.7822 93.8147 66.3927 93.8147 65.9182L93.6943 65.9181C93.6943 66.4612 94.1358 66.905 94.6836 66.905C95.2313 66.905 95.6728 66.4612 95.6728 65.9182L95.55 65.9181L95.5476 65.9182Z" fill="#E0040B"/>
<path d="M94.4475 66.0338H94.7592C94.9055 66.0338 94.9126 66.0952 94.9126 66.2558C94.9126 66.3691 94.9197 66.4305 94.9339 66.4871H95.1534V66.4541C95.1086 66.4376 95.1086 66.3951 95.1086 66.2274C95.1086 66.0102 95.0708 65.9748 94.9929 65.9347C95.0826 65.8969 95.1369 65.7859 95.1369 65.6608C95.1369 65.564 95.0921 65.335 94.8371 65.335H94.2681V66.4895H94.4593V65.5333H94.8017C94.9197 65.5333 94.941 65.6254 94.941 65.6868C94.941 65.8001 94.8914 65.8426 94.7851 65.8426H94.4475V66.0362V66.0338Z" fill="#E0040B"/>
<path d="M60.0293 4.84706C60.0293 2.07529 58.4522 0 55.1751 0H49.5277C47.8491 0 46.3286 0.7862 45.2851 2.05404L32.8782 16.5362C31.2845 16.09 27.7974 15.351 24.9217 15.3297C19.9094 15.292 15.3362 17.2374 11.7688 20.93C9.14341 23.6474 6.99966 28.9667 9.32285 34.0852C11.1597 38.1343 15.0199 40.8211 20.4335 40.9745C28.5411 41.2059 33.662 35.5632 38.1243 30.4352C40.8984 31.1293 43.5521 31.5 46.7134 31.6275V35.9882C46.7134 38.5475 48.7958 40.6298 51.3527 40.6298H57.8832C55.4962 42.214 54.4669 44.1736 54.3394 46.001C54.1741 48.3502 56.5044 52.9446 63.7148 52.9446C66.7698 52.9446 69.5699 51.6437 71.6004 49.2804C73.2955 47.3066 74.3178 44.7686 74.6012 41.8693C78.0741 39.7209 81.5802 37.3552 84.4086 34.6094C88.401 30.735 90.4385 26.5868 90.0797 22.1411C89.7751 18.3565 86.5689 15.3132 82.7701 15.3132C78.9713 15.3132 76.3884 17.32 75.2032 20.3822C75.2032 18.4179 74.5209 16.8455 72.7643 16.1915C75.0403 14.7135 76.549 12.1472 76.549 9.23845C76.549 4.66999 72.8304 0.95147 68.262 0.95147C64.0429 0.95147 60.5463 4.12225 60.0364 8.20671V4.8447L60.0293 4.84706Z" fill="white"/>
<path d="M68.2573 14.7088C71.2746 14.7088 73.7205 12.2605 73.7205 9.24315C73.7205 6.22584 71.2746 3.77988 68.2573 3.77988C65.24 3.77988 62.7964 6.22584 62.7964 9.24315C62.7964 12.2605 65.2423 14.7088 68.2573 14.7088Z" fill="#E0040B"/>
<path d="M66.2811 18.2196C63.8541 18.2196 61.5191 20.3775 57.0002 21.983C56.9978 21.983 57.0002 4.58028 57.0002 4.56611C57.0002 3.6477 56.1526 2.82373 55.1775 2.82373H49.5301C48.7439 2.82373 48.1041 3.1637 47.4855 3.82005L33.8131 19.7873C32.3564 19.2773 29.816 18.5383 26.6334 18.2361C20.8892 17.6907 16.4435 19.9454 13.8748 22.814C8.04321 29.3256 12.2505 38.1508 20.4359 38.1508C25.8071 38.1508 29.2848 35.9599 34.4364 30.3502C35.8105 28.8534 37.1114 27.2526 37.1114 27.2526L37.1232 27.2385C40.9149 28.3481 44.3147 28.8604 49.5395 28.8604V35.9906C49.5395 36.994 50.3541 37.8061 51.3551 37.8061H55.1799C56.1833 37.8061 56.9955 36.9916 56.9955 35.9906C56.9955 35.9906 56.9955 32.3806 56.9955 27.6115C59.6279 26.8158 62.029 25.8455 64.6261 24.4289L64.6167 39.643C63.2024 40.5992 59.1911 43.3591 59.1911 43.3591C56.2116 45.4745 57.0167 47.2335 58.4026 48.4376C59.8262 49.6723 61.682 50.1256 63.7171 50.1256C68.1912 50.1256 71.8412 46.2749 71.8577 40.245C79.1342 35.8324 87.6644 30.0881 87.289 22.7314C87.289 20.1863 85.1358 18.2219 82.7701 18.2219C80.284 18.2219 78.2678 20.2382 78.2678 22.7243C78.2678 24.1763 78.9548 25.463 80.0219 26.287C78.7163 29.3043 75.6943 31.9911 71.8695 34.7345V20.0824C71.8483 19.053 70.996 18.2243 69.9595 18.2243H66.2811V18.2196ZM29.6366 24.6579L26.8459 27.6115C24.662 29.9276 22.124 33.0441 19.5175 33.0441C18.4645 33.0441 17.6854 32.5199 17.2132 31.7432C16.4223 30.4494 16.4766 28.4496 17.5248 26.9882C19.756 23.8741 23.0235 23.3688 26.4587 23.8505C28.0335 24.0724 28.8716 24.3486 29.6366 24.6579ZM49.5395 12.4824V23.1587C46.8409 23.2154 44.1919 22.8636 41.3753 22.1836L49.5395 12.4824Z" fill="#E0040B"/>
</svg>
